# xmcd
#
# Track frame offsets: 
#        150
#        13641
#        27900
#        42826
#        56181
#
# Disc length: 966 seconds
#
# Revision: 0
# Processed by: cddbd v1.5.2PL0 Copyright (c) Steve Scherf et al.
# Submitted via: ExactAudioCopy v1.3
#
DISCID=3903c405
DTITLE=Hannah Ellis - Hannah Ellis
DYEAR=2017
DGENRE=Country
TTITLE0=Temporary Feeling
TTITLE1=ILYSoWhat
TTITLE2=Never in Love
TTITLE3=Ghosted
TTITLE4=Break from the Weather
EXTD=
EXTT0=
EXTT1=
EXTT2=
EXTT3=
EXTT4=
PLAYORDER=
